{
	"asset":{
		"generator":"Khronos glTF Blender I/O v4.2.83",
		"version":"2.0"
	},
	"scene":0,
	"scenes":[
		{
			"extras":{
				"luxcore":{
					"devices":{}
				}
			},
			"name":"Scene",
			"nodes":[
				0,
				1
			]
		}
	],
	"nodes":[
		{
			"mesh":0,
			"name":"Cube"
		},
		{
			"mesh":1,
			"name":"Cylinder",
			"translation":[
				0,
				-0.04977152869105339,
				0.20000000298023224
			]
		}
	],
	"materials":[
		{
			"doubleSided":true,
			"name":"wall",
			"pbrMetallicRoughness":{
				"baseColorFactor":[
					0.4200241267681122,
					0.4200241267681122,
					0.4200241267681122,
					1
				],
				"metallicFactor":0,
				"roughnessFactor":0.5
			}
		},
		{
			"doubleSided":true,
			"name":"ceiling",
			"pbrMetallicRoughness":{
				"baseColorFactor":[
					0.5070683360099792,
					0.5070683360099792,
					0.5070683360099792,
					1
				],
				"metallicFactor":0,
				"roughnessFactor":0.5
			}
		},
		{
			"doubleSided":true,
			"name":"window_frame",
			"pbrMetallicRoughness":{
				"baseColorFactor":[
					0.049549028277397156,
					0.049549028277397156,
					0.049549028277397156,
					1
				],
				"metallicFactor":0,
				"roughnessFactor":0.5
			}
		},
		{
			"doubleSided":true,
			"name":"exterior_wall",
			"pbrMetallicRoughness":{
				"baseColorFactor":[
					0.5066754817962646,
					0.8000000715255737,
					0.19654306769371033,
					1
				],
				"metallicFactor":0,
				"roughnessFactor":0.5
			}
		},
		{
			"doubleSided":true,
			"name":"grass",
			"pbrMetallicRoughness":{
				"baseColorFactor":[
					0.12558205425739288,
					0.18571436405181885,
					0.08531257510185242,
					1
				],
				"metallicFactor":0,
				"roughnessFactor":0.5
			}
		},
		{
			"doubleSided":true,
			"name":"top",
			"pbrMetallicRoughness":{
				"baseColorFactor":[
					0.37142863869667053,
					0.13647618889808655,
					0.06213958561420441,
					1
				],
				"metallicFactor":0,
				"roughnessFactor":0.5
			}
		},
		{
			"doubleSided":true,
			"name":"pole",
			"pbrMetallicRoughness":{
				"baseColorFactor":[
					0.020378826186060905,
					0.020378826186060905,
					0.020378826186060905,
					1
				],
				"metallicFactor":0,
				"roughnessFactor":0.5
			}
		}
	],
	"meshes":[
		{
			"name":"Cube",
			"primitives":[
				{
					"attributes":{
						"POSITION":0,
						"NORMAL":1,
						"TEXCOORD_0":2
					},
					"indices":3,
					"material":0
				},
				{
					"attributes":{
						"POSITION":4,
						"NORMAL":5,
						"TEXCOORD_0":6
					},
					"indices":7,
					"material":1
				},
				{
					"attributes":{
						"POSITION":8,
						"NORMAL":9,
						"TEXCOORD_0":10
					},
					"indices":11,
					"material":2
				},
				{
					"attributes":{
						"POSITION":12,
						"NORMAL":13,
						"TEXCOORD_0":14
					},
					"indices":15,
					"material":3
				},
				{
					"attributes":{
						"POSITION":16,
						"NORMAL":17,
						"TEXCOORD_0":18
					},
					"indices":19,
					"material":4
				}
			]
		},
		{
			"name":"Cylinder",
			"primitives":[
				{
					"attributes":{
						"POSITION":20,
						"NORMAL":21,
						"TEXCOORD_0":22
					},
					"indices":23,
					"material":5
				},
				{
					"attributes":{
						"POSITION":24,
						"NORMAL":25,
						"TEXCOORD_0":26
					},
					"indices":27,
					"material":6
				}
			]
		}
	],
	"accessors":[
		{
			"bufferView":0,
			"componentType":5126,
			"count":2715,
			"max":[
				5,
				4,
				12
			],
			"min":[
				-5,
				-1.5,
				-2.5
			],
			"type":"VEC3"
		},
		{
			"bufferView":1,
			"componentType":5126,
			"count":2715,
			"type":"VEC3"
		},
		{
			"bufferView":2,
			"componentType":5126,
			"count":2715,
			"type":"VEC2"
		},
		{
			"bufferView":3,
			"componentType":5123,
			"count":9894,
			"type":"SCALAR"
		},
		{
			"bufferView":4,
			"componentType":5126,
			"count":23,
			"max":[
				4,
				3.5,
				2.5
			],
			"min":[
				-4,
				3.5,
				-2
			],
			"type":"VEC3"
		},
		{
			"bufferView":5,
			"componentType":5126,
			"count":23,
			"type":"VEC3"
		},
		{
			"bufferView":6,
			"componentType":5126,
			"count":23,
			"type":"VEC2"
		},
		{
			"bufferView":7,
			"componentType":5123,
			"count":54,
			"type":"SCALAR"
		},
		{
			"bufferView":8,
			"componentType":5126,
			"count":373,
			"max":[
				3.5,
				3.5,
				2.333333730697632
			],
			"min":[
				-3.5,
				1,
				2.1666665077209473
			],
			"type":"VEC3"
		},
		{
			"bufferView":9,
			"componentType":5126,
			"count":373,
			"type":"VEC3"
		},
		{
			"bufferView":10,
			"componentType":5126,
			"count":373,
			"type":"VEC2"
		},
		{
			"bufferView":11,
			"componentType":5123,
			"count":1410,
			"type":"SCALAR"
		},
		{
			"bufferView":12,
			"componentType":5126,
			"count":250,
			"max":[
				5,
				3.5,
				2.500000476837158
			],
			"min":[
				-5,
				1,
				2.3333332538604736
			],
			"type":"VEC3"
		},
		{
			"bufferView":13,
			"componentType":5126,
			"count":250,
			"type":"VEC3"
		},
		{
			"bufferView":14,
			"componentType":5126,
			"count":250,
			"type":"VEC2"
		},
		{
			"bufferView":15,
			"componentType":5123,
			"count":708,
			"type":"SCALAR"
		},
		{
			"bufferView":16,
			"componentType":5126,
			"count":105,
			"max":[
				4.5,
				0.900124192237854,
				11.495020866394043
			],
			"min":[
				-4.5,
				0.40012413263320923,
				5.495018482208252
			],
			"type":"VEC3"
		},
		{
			"bufferView":17,
			"componentType":5126,
			"count":105,
			"type":"VEC3"
		},
		{
			"bufferView":18,
			"componentType":5126,
			"count":105,
			"type":"VEC2"
		},
		{
			"bufferView":19,
			"componentType":5123,
			"count":324,
			"type":"SCALAR"
		},
		{
			"bufferView":20,
			"componentType":5126,
			"count":826,
			"max":[
				-1.100000023841858,
				1.9250000715255737,
				0.8999999761581421
			],
			"min":[
				-2.9000000953674316,
				1.8550070524215698,
				-0.8999999761581421
			],
			"type":"VEC3"
		},
		{
			"bufferView":21,
			"componentType":5126,
			"count":826,
			"type":"VEC3"
		},
		{
			"bufferView":22,
			"componentType":5126,
			"count":826,
			"type":"VEC2"
		},
		{
			"bufferView":23,
			"componentType":5123,
			"count":2106,
			"type":"SCALAR"
		},
		{
			"bufferView":24,
			"componentType":5126,
			"count":202,
			"max":[
				-1.7573450803756714,
				1.8550070524215698,
				0.2426549196243286
			],
			"min":[
				-2.242654800415039,
				1.0479024648666382,
				-0.2426549196243286
			],
			"type":"VEC3"
		},
		{
			"bufferView":25,
			"componentType":5126,
			"count":202,
			"type":"VEC3"
		},
		{
			"bufferView":26,
			"componentType":5126,
			"count":202,
			"type":"VEC2"
		},
		{
			"bufferView":27,
			"componentType":5123,
			"count":768,
			"type":"SCALAR"
		}
	],
	"bufferViews":[
		{
			"buffer":0,
			"byteLength":32580,
			"byteOffset":0,
			"target":34962
		},
		{
			"buffer":0,
			"byteLength":32580,
			"byteOffset":32580,
			"target":34962
		},
		{
			"buffer":0,
			"byteLength":21720,
			"byteOffset":65160,
			"target":34962
		},
		{
			"buffer":0,
			"byteLength":19788,
			"byteOffset":86880,
			"target":34963
		},
		{
			"buffer":0,
			"byteLength":276,
			"byteOffset":106668,
			"target":34962
		},
		{
			"buffer":0,
			"byteLength":276,
			"byteOffset":106944,
			"target":34962
		},
		{
			"buffer":0,
			"byteLength":184,
			"byteOffset":107220,
			"target":34962
		},
		{
			"buffer":0,
			"byteLength":108,
			"byteOffset":107404,
			"target":34963
		},
		{
			"buffer":0,
			"byteLength":4476,
			"byteOffset":107512,
			"target":34962
		},
		{
			"buffer":0,
			"byteLength":4476,
			"byteOffset":111988,
			"target":34962
		},
		{
			"buffer":0,
			"byteLength":2984,
			"byteOffset":116464,
			"target":34962
		},
		{
			"buffer":0,
			"byteLength":2820,
			"byteOffset":119448,
			"target":34963
		},
		{
			"buffer":0,
			"byteLength":3000,
			"byteOffset":122268,
			"target":34962
		},
		{
			"buffer":0,
			"byteLength":3000,
			"byteOffset":125268,
			"target":34962
		},
		{
			"buffer":0,
			"byteLength":2000,
			"byteOffset":128268,
			"target":34962
		},
		{
			"buffer":0,
			"byteLength":1416,
			"byteOffset":130268,
			"target":34963
		},
		{
			"buffer":0,
			"byteLength":1260,
			"byteOffset":131684,
			"target":34962
		},
		{
			"buffer":0,
			"byteLength":1260,
			"byteOffset":132944,
			"target":34962
		},
		{
			"buffer":0,
			"byteLength":840,
			"byteOffset":134204,
			"target":34962
		},
		{
			"buffer":0,
			"byteLength":648,
			"byteOffset":135044,
			"target":34963
		},
		{
			"buffer":0,
			"byteLength":9912,
			"byteOffset":135692,
			"target":34962
		},
		{
			"buffer":0,
			"byteLength":9912,
			"byteOffset":145604,
			"target":34962
		},
		{
			"buffer":0,
			"byteLength":6608,
			"byteOffset":155516,
			"target":34962
		},
		{
			"buffer":0,
			"byteLength":4212,
			"byteOffset":162124,
			"target":34963
		},
		{
			"buffer":0,
			"byteLength":2424,
			"byteOffset":166336,
			"target":34962
		},
		{
			"buffer":0,
			"byteLength":2424,
			"byteOffset":168760,
			"target":34962
		},
		{
			"buffer":0,
			"byteLength":1616,
			"byteOffset":171184,
			"target":34962
		},
		{
			"buffer":0,
			"byteLength":1536,
			"byteOffset":172800,
			"target":34963
		}
	],
	"buffers":[
		{
			"byteLength":174336,
			"uri":"living_room-8461f99131ec7142fa79e355dcd58c5f.bin"
		}
	]
}
